HIERARCHY
ROOT Hips
{
    OFFSET 0.000000 0.000000 0.000000
    CHANNELS 6 Xposition Yposition Zposition Zrotation Xrotation Yrotation
    JOINT Spine
    {
        OFFSET -0.000000 7.925200 0.000000
        CHANNELS 3 Zrotation Xrotation Yrotation
        JOINT Spine1
        {
            OFFSET -0.000000 23.364719 0.000000
            CHANNELS 3 Zrotation Xrotation Yrotation
            JOINT Neck
            {
                OFFSET -0.000000 23.268766 2.115342
                CHANNELS 3 Zrotation Xrotation Yrotation
                JOINT Head
                {
                    OFFSET -0.000000 13.530829 -1.932976
                    CHANNELS 3 Zrotation Xrotation Yrotation
                    End Site
                    {
                        OFFSET -0.000000 24.162195 0.000000
                    }
                }
            }
            JOINT LeftShoulder
            {
                OFFSET 3.858291 22.792089 -0.033814
                CHANNELS 3 Zrotation Xrotation Yrotation
                JOINT LeftArm
                {
                    OFFSET 7.057024 0.000000 0.000000
                    CHANNELS 3 Zrotation Xrotation Yrotation
                    JOINT LeftForeArm
                    {
                        OFFSET 34.734173 0.000000 0.000000
                        CHANNELS 3 Zrotation Xrotation Yrotation
                        JOINT LeftHand
                        {
                            OFFSET 23.943203 0.000000 0.000000
                            CHANNELS 3 Zrotation Xrotation Yrotation
                            End Site
                            {
                                OFFSET 14.497317 0.000000 0.000000
                            }
                        }
                    }
                }
            }
            JOINT RightShoulder
            {
                OFFSET -3.868823 22.792089 -0.033814
                CHANNELS 3 Zrotation Xrotation Yrotation
                JOINT RightArm
                {
                    OFFSET -7.057024 0.000000 0.000000
                    CHANNELS 3 Zrotation Xrotation Yrotation
                    JOINT RightForeArm
                    {
                        OFFSET -34.734173 0.000000 0.000000
                        CHANNELS 3 Zrotation Xrotation Yrotation
                        JOINT RightHand
                        {
                            OFFSET -23.943203 0.000000 0.000000
                            CHANNELS 3 Zrotation Xrotation Yrotation
                            End Site
                            {
                                OFFSET -14.497317 0.000000 0.000000
                            }
                        }
                    }
                }
            }
        }
    }
    JOINT LeftUpLeg
    {
        OFFSET 9.664878 0.000000 0.000000
        CHANNELS 3 Zrotation Xrotation Yrotation
        JOINT LeftLeg
        {
            OFFSET -0.000000 -38.728706 0.000000
            CHANNELS 3 Zrotation Xrotation Yrotation
            JOINT LeftFoot
            {
                OFFSET -0.000000 -40.242161 0.000000
                CHANNELS 3 Zrotation Xrotation Yrotation
                JOINT LeftToeBase
                {
                    OFFSET -0.000000 -6.282171 14.497317
                    CHANNELS 3 Zrotation Xrotation Yrotation
                    End Site
                    {
                        OFFSET -0.000000 0.000000 3.865951
                    }
                }
            }
        }
    }
    JOINT RightUpLeg
    {
        OFFSET -9.664878 0.000000 0.000000
        CHANNELS 3 Zrotation Xrotation Yrotation
        JOINT RightLeg
        {
            OFFSET -0.000000 -38.728706 0.000000
            CHANNELS 3 Zrotation Xrotation Yrotation
            JOINT RightFoot
            {
                OFFSET -0.000000 -40.242161 0.000000
                CHANNELS 3 Zrotation Xrotation Yrotation
                JOINT RightToeBase
                {
                    OFFSET -0.000000 -6.282171 14.497317
                    CHANNELS 3 Zrotation Xrotation Yrotation
                    End Site
                    {
                        OFFSET -0.000000 0.000000 3.865951
                    }
                }
            }
        }
    }
}
MOTION
Frames:    11
Frame Time:    0.008333
-68.386421    86.462021    28.148466    -0.379009    -2.254573    89.182343    0.004648    -7.859143    -5.510715    3.963379    11.095718    -5.896204    -1.027682    14.699325    8.870760    -4.811177    -4.848414    8.366343    -0.158015    4.438950    2.083351    -21.202066    56.948383    -36.306503    12.499371    -18.004025    -39.472210    -6.902236    -13.497460    -2.990933    2.460914    6.389263    2.036402    37.854355    58.645336    24.863554    -0.959298    -10.867561    19.801620    5.795495    -10.680927    0.447406    3.137069    11.757114    2.611437    -3.575922    7.502997    -7.661067    6.578713    -16.739792    12.738060    0.000000    0.000000    0.000000    1.983826    -22.291756    3.821089    -0.988985    2.856049    -9.415803    8.083012    1.289528    -12.748525    0.000000    0.000000    0.000000    
-67.709969    86.371788    28.247490    -0.480862    -2.261236    89.246605    0.200349    -8.152003    -5.585767    3.735073    11.528421    -5.977264    -1.203206    14.883450    9.019078    -4.689708    -5.667931    8.510662    -0.038676    4.323317    2.346703    -20.880594    57.273270    -36.654774    12.714469    -17.952381    -39.274479    -7.635729    -13.317701    -3.858692    2.390485    6.263523    2.229026    37.823086    58.609303    25.123045    -0.918596    -10.833449    19.759748    5.636511    -10.653849    0.465591    3.294544    11.876987    2.665655    -3.629930    8.015113    -8.502393    6.497258    -17.076630    13.417433    0.000000    0.000000    0.000000    2.110931    -22.432919    3.839978    -1.187625    2.807155    -9.521832    8.234639    1.221405    -12.522710    0.000000    0.000000    0.000000    
-67.026070    86.306107    28.307814    -0.542240    -2.160451    89.506454    0.183286    -8.136003    -5.672032    3.728373    11.485269    -6.060198    -1.266256    14.510629    8.927115    -4.509887    -5.107324    8.475836    -0.104466    4.364470    2.409962    -20.896830    57.427040    -36.713470    12.537640    -17.874189    -39.361183    -7.456755    -13.309550    -3.635724    2.316789    6.308186    2.281338    37.878170    58.389618    25.184105    -0.879077    -10.570364    19.671850    5.810838    -10.393205    0.548527    3.249797    11.948552    2.663205    -3.459594    8.572222    -8.719352    6.043960    -17.392109    13.300805    0.000000    0.000000    0.000000    1.923034    -22.549683    4.044126    -1.198575    2.976249    -9.948237    8.043193    1.345179    -12.110189    0.000000    0.000000    0.000000    
-66.325066    86.237511    28.387127    -0.544810    -2.095275    89.661163    0.078957    -8.220420    -5.714686    3.939238    11.739836    -6.125553    -1.326760    14.579580    8.968147    -4.676697    -5.595023    8.468382    -0.128529    4.361282    2.384177    -21.174261    57.536339    -36.654415    12.504251    -17.819199    -39.298141    -7.587566    -13.263721    -3.712127    2.056275    6.278420    2.230907    37.527245    58.552677    25.664288    -0.940246    -10.692628    19.797487    5.927453    -10.505383    0.511900    3.297340    12.128493    2.622324    -3.437853    9.096926    -8.832926    5.661939    -17.676563    13.227233    0.000000    0.000000    0.000000    1.754469    -22.698885    4.260656    -0.992083    3.621439    -9.621750    7.680817    1.180981    -12.389508    0.000000    0.000000    0.000000    
-65.635559    86.171326    28.485146    -0.606066    -2.157870    89.819275    0.431870    -8.203777    -5.757305    3.544835    11.669580    -6.150694    -1.046632    14.435596    9.024339    -4.895488    -5.391757    8.491098    -0.037061    4.416903    2.454029    -21.290991    57.745605    -36.573452    12.340516    -17.620003    -39.314449    -7.479113    -13.122803    -3.656456    2.253155    6.344240    2.353830    37.546036    58.389244    25.663343    -0.912932    -10.550307    19.742136    5.832509    -10.365191    0.578674    3.473157    12.187658    2.724081    -3.356927    9.730824    -9.002682    5.250106    -18.031752    13.055639    0.000000    0.000000    0.000000    1.800217    -22.830084    4.580532    -0.858521    4.231224    -9.963988    7.475079    1.267100    -12.223639    0.000000    0.000000    0.000000    
-64.892593    86.107338    28.568813    -0.544668    -2.086850    89.937714    0.383621    -8.069643    -5.801643    3.767936    11.491362    -6.208020    -1.466911    14.694056    9.046230    -4.702944    -5.633578    8.543888    -0.576439    4.504349    2.319278    -21.483807    58.032646    -36.111713    12.263889    -17.522238    -39.149643    -7.449010    -13.070232    -3.657925    2.111943    6.468645    2.568189    37.880074    58.094730    25.392542    -0.939630    -10.466480    19.593315    5.779898    -10.272574    0.692728    3.497288    12.475240    2.746574    -3.304717    10.178566    -8.981041    4.768870    -18.227831    12.787428    0.000000    0.000000    0.000000    1.792854    -22.751604    4.490885    -0.847556    4.904661    -9.686791    7.245624    1.106380    -12.229309    0.000000    0.000000    0.000000    
-64.151604    86.067245    28.684116    -0.545819    -2.123955    90.149269    0.457949    -8.099328    -5.804573    3.751205    11.603247    -6.218316    -1.331131    14.578989    8.909972    -4.708867    -5.539705    8.404016    -0.502427    4.571280    2.233254    -21.707232    58.251083    -36.110638    12.158340    -17.415768    -39.048927    -7.688419    -13.010427    -3.541810    2.250734    6.358077    2.422542    37.494564    58.530575    25.597700    -1.130940    -10.698198    19.782688    5.750995    -10.476926    0.556977    3.699930    12.586192    2.729299    -3.294441    10.867730    -9.505901    4.501083    -18.429268    13.083148    0.000000    0.000000    0.000000    1.771176    -22.733189    4.492479    -0.623554    5.714880    -9.488147    7.148853    0.907686    -12.277661    0.000000    0.000000    0.000000    
-63.351513    86.019867    28.772085    -0.461743    -2.052531    90.269447    0.524681    -7.816670    -5.837092    3.805366    11.001711    -6.239596    -1.644308    15.420235    8.947751    -4.711615    -6.167546    8.409500    -1.146209    4.850899    1.980002    -22.192535    58.546261    -35.198799    12.050589    -17.205513    -38.866375    -7.778200    -12.849890    -3.572520    2.281310    6.708105    2.840897    37.809357    58.444874    25.102791    -1.290471    -10.857687    19.662594    6.185795    -10.602045    0.678448    3.734136    12.850363    2.708750    -3.262397    11.473296    -9.436390    3.927675    -18.583437    12.814765    0.000000    0.000000    0.000000    1.693242    -22.496307    4.678708    -0.475498    6.456829    -9.105832    7.105623    0.569636    -12.396365    0.000000    0.000000    0.000000    
-62.550365    85.979218    28.895790    -0.348625    -2.077270    90.463806    0.685952    -7.874176    -5.918764    3.682929    11.243885    -6.328696    -1.707795    15.368810    9.000299    -4.691119    -6.286319    8.464787    -1.142027    4.935768    2.137066    -22.145386    58.878429    -35.340664    11.882331    -17.136532    -38.791565    -7.848040    -12.853239    -3.441939    2.204018    6.742747    2.886749    37.850002    58.083149    25.287552    -1.115258    -10.568862    19.672400    5.773954    -10.348399    0.612921    3.949202    13.120475    2.644777    -3.293857    12.127902    -9.435129    3.334406    -18.729090    12.579336    0.000000    0.000000    0.000000    1.786599    -22.112434    4.395647    -0.496846    6.997139    -8.596750    6.972103    0.348374    -12.275320    0.000000    0.000000    0.000000    
-61.773312    85.950134    29.004908    -0.354161    -2.052529    90.692963    0.694224    -7.842665    -5.888567    3.765578    11.154714    -6.304047    -1.584610    15.475883    8.884810    -4.897989    -6.377058    8.297713    -1.248632    5.061886    2.031127    -22.314730    59.172966    -35.347927    11.700587    -16.877726    -38.559151    -7.751891    -12.673160    -3.565954    2.218822    6.595976    2.640240    37.594181    58.594059    25.395510    -1.187762    -10.777077    19.807108    5.679052    -10.541552    0.652893    4.023868    13.112741    2.677560    -3.117659    13.012785    -9.610585    2.695230    -18.892239    12.387022    0.000000    0.000000    0.000000    1.813942    -21.815224    4.016575    -0.568030    7.438406    -8.052100    6.932763    0.109926    -12.042563    0.000000    0.000000    0.000000    
-60.950768    85.930580    29.136011    -0.378276    -1.996895    90.917252    0.611579    -8.107087    -5.904830    3.890043    11.567209    -6.342384    -1.531261    14.869515    8.834400    -4.911306    -5.766000    8.276578    -1.131786    5.092162    2.049795    -22.442310    59.539364    -35.524441    11.571204    -16.728191    -38.482998    -7.870481    -12.570452    -3.562942    2.058057    6.403564    2.373279    37.481346    58.607639    25.697769    -1.146193    -10.821651    19.899179    5.618532    -10.601179    0.477157    4.141058    13.106326    2.611467    -3.073874    13.873211    -9.621406    1.919463    -18.936167    12.106905    0.000000    0.000000    0.000000    1.838727    -21.388567    3.775312    -0.634494    7.536878    -7.574755    6.576930    0.110799    -11.889882    0.000000    0.000000    0.000000    
